<mxfile host="app.diagrams.net" modified="2025-03-16T17:16:27.551Z" agent="Mozilla/5.0 (Windows NT 10.0; Win64; x64) AppleWebKit/537.36 (KHTML, like Gecko) Chrome/134.0.0.0 Safari/537.36" etag="4rsFKtQrHfkgnRYNeh3C" version="24.4.14" type="device">
  <diagram name="Page-1" id="b5b7bab2-c9e2-2cf4-8b2a-24fd1a2a6d21">
    <mxGraphModel dx="173" dy="497" grid="1" gridSize="10" guides="1" tooltips="1" connect="1" arrows="1" fold="1" page="1" pageScale="1" pageWidth="827" pageHeight="1169" background="none" math="0" shadow="0">
      <root>
        <mxCell id="0" />
        <mxCell id="1" parent="0" />
        <mxCell id="6e0c8c40b5770093-45" value="Presentation" style="shape=folder;fontStyle=1;spacingTop=10;tabWidth=50;tabHeight=17;tabPosition=left;html=1;rounded=0;shadow=0;comic=0;labelBackgroundColor=none;strokeColor=#000000;strokeWidth=1;fillColor=#ffffff;fontFamily=Verdana;fontSize=10;fontColor=#000000;align=center;" parent="1" vertex="1">
          <mxGeometry x="1080" y="540" width="112" height="70" as="geometry" />
        </mxCell>
        <mxCell id="6e0c8c40b5770093-49" value="Business Logic" style="shape=folder;fontStyle=1;spacingTop=10;tabWidth=50;tabHeight=17;tabPosition=left;html=1;rounded=0;shadow=0;comic=0;labelBackgroundColor=none;strokeWidth=1;fontFamily=Verdana;fontSize=10;align=center;" parent="1" vertex="1">
          <mxGeometry x="1080" y="690" width="112" height="70" as="geometry" />
        </mxCell>
        <mxCell id="6e0c8c40b5770093-50" value="Data Access" style="shape=folder;fontStyle=1;spacingTop=10;tabWidth=50;tabHeight=17;tabPosition=left;html=1;rounded=0;shadow=0;comic=0;labelBackgroundColor=none;strokeWidth=1;fontFamily=Verdana;fontSize=10;align=center;" parent="1" vertex="1">
          <mxGeometry x="1080" y="830" width="112" height="70" as="geometry" />
        </mxCell>
        <mxCell id="6e0c8c40b5770093-55" value="" style="group" parent="1" vertex="1" connectable="0">
          <mxGeometry x="1410" y="689.9994795496323" width="130" height="70" as="geometry" />
        </mxCell>
        <mxCell id="6e0c8c40b5770093-56" value="Data Model" style="shape=folder;fontStyle=1;spacingTop=10;tabWidth=50;tabHeight=17;tabPosition=left;html=1;rounded=0;shadow=0;comic=0;labelBackgroundColor=none;strokeWidth=1;fontFamily=Verdana;fontSize=10;align=center;" parent="6e0c8c40b5770093-55" vertex="1">
          <mxGeometry width="130" height="70" as="geometry" />
        </mxCell>
        <mxCell id="7wfcK0cwPxi3M0UKlV5--1" value="" style="endArrow=open;endSize=12;dashed=1;html=1;rounded=0;entryX=0;entryY=0;entryDx=50;entryDy=17;entryPerimeter=0;" edge="1" parent="1" target="6e0c8c40b5770093-49">
          <mxGeometry width="160" relative="1" as="geometry">
            <mxPoint x="1130" y="610" as="sourcePoint" />
            <mxPoint x="1270" y="650" as="targetPoint" />
          </mxGeometry>
        </mxCell>
        <mxCell id="7wfcK0cwPxi3M0UKlV5--2" value="" style="endArrow=open;endSize=12;dashed=1;html=1;rounded=0;" edge="1" parent="1">
          <mxGeometry width="160" relative="1" as="geometry">
            <mxPoint x="1135.52" y="760" as="sourcePoint" />
            <mxPoint x="1136" y="850" as="targetPoint" />
          </mxGeometry>
        </mxCell>
        <mxCell id="7wfcK0cwPxi3M0UKlV5--3" value="" style="endArrow=open;endSize=12;dashed=1;html=1;rounded=0;entryX=0;entryY=0;entryDx=0;entryDy=17;entryPerimeter=0;exitX=0;exitY=0;exitDx=112;exitDy=43.5;exitPerimeter=0;" edge="1" parent="1" source="6e0c8c40b5770093-45" target="6e0c8c40b5770093-56">
          <mxGeometry width="160" relative="1" as="geometry">
            <mxPoint x="1150" y="630" as="sourcePoint" />
            <mxPoint x="1150" y="727" as="targetPoint" />
          </mxGeometry>
        </mxCell>
        <mxCell id="7wfcK0cwPxi3M0UKlV5--4" value="" style="endArrow=open;endSize=12;dashed=1;html=1;rounded=0;entryX=0;entryY=0;entryDx=0;entryDy=43.5;entryPerimeter=0;exitX=0;exitY=0;exitDx=112;exitDy=43.5;exitPerimeter=0;" edge="1" parent="1" source="6e0c8c40b5770093-49" target="6e0c8c40b5770093-56">
          <mxGeometry width="160" relative="1" as="geometry">
            <mxPoint x="1160" y="640" as="sourcePoint" />
            <mxPoint x="1160" y="737" as="targetPoint" />
          </mxGeometry>
        </mxCell>
        <mxCell id="7wfcK0cwPxi3M0UKlV5--5" value="" style="endArrow=open;endSize=12;dashed=1;html=1;rounded=0;exitX=0;exitY=0;exitDx=112;exitDy=43.5;exitPerimeter=0;" edge="1" parent="1" source="6e0c8c40b5770093-50">
          <mxGeometry width="160" relative="1" as="geometry">
            <mxPoint x="1170" y="650" as="sourcePoint" />
            <mxPoint x="1410" y="760" as="targetPoint" />
          </mxGeometry>
        </mxCell>
      </root>
    </mxGraphModel>
  </diagram>
</mxfile>
